<?xml version="1.0" encoding="UTF-8"?>
<svg id="Capa_1" data-name="Capa 1" xmlns="http://www.w3.org/2000/svg" viewBox="0 0 321 578.94">
  <defs>
    <style>
      .cls-1 {
        font-family: BerlinSansFBDemi-Bold, 'Berlin Sans FB Demi';
        font-size: 94.22px;
        font-weight: 700;
      }

      .cls-1, .cls-2 {
        fill: red;
      }

      .cls-3 {
        fill: #0878ff;
      }

      .cls-3, .cls-2, .cls-4 {
        stroke-width: 0px;
      }

      .cls-5 {
        font-size: 72px;
      }

      .cls-5, .cls-6 {
        fill: #ffff2e;
        font-family: Algerian, Algerian;
      }

      .cls-6 {
        font-size: 75.46px;
      }

      .cls-7 {
        fill: #161414;
        stroke: #000;
        stroke-miterlimit: 10;
      }

      .cls-4 {
        fill: #56ff27;
      }
    </style>
  </defs>
  <rect class="cls-7" x=".5" y=".5" width="320" height="574.63"/>
  <text class="cls-6" transform="translate(205.08 116.84)"><tspan x="0" y="0">w</tspan></text>
  <path class="cls-4" d="m140.27,315.11c5.48,8.7,7.72,17.36,7.28,25.79-.45,8.72-3.61,15.08-10.32,19.54-2.45,1.63-5.69,2.68-9.82,3.19-4.13.51-6.11.68-5.85.51-.43.28-.13.98.92,2.05,1.79,1.82,4.61,4.46,8.67,7.55,4.06,3.08,7.24,5.1,9.32,6.41,1.31.82,1.54,1.48.66,2.03-3.21,2.05-4.81,3.07-8.01,5.12-1.82,1.15-3.12,1.84-3.88,2.09-1.13.37-2.44.33-3.89-.23-18.55-6.85-33.57-23.35-41.16-41.26-3.41-9.43-6.65-18.66-7.49-28.73-.04-.48-.05-.91-.03-1.27.04-.78.25-1.4.61-1.87,1.15-1.45,3.28-3.54,6.27-6.25,2.92-2.64,4.95-4.36,6.22-5.15,1.04-.65,1.68.22,2.13,2.61.45,2.39.88,3.51,1.12,3.37-.29.18.78-1.92,3-6.13,2.22-4.21,4.21-6.88,6.27-8.18,5.72-3.6,11.34-3.28,18.52.35,6.93,3.51,13.81,9.49,19.46,18.47Zm-19.35,11.67c-1.92-3.44-4.36-6.01-7.26-7.64-3.07-1.73-5.82-1.88-8.38-.35-2.63,1.57-4.24,4.3-4.67,8.17-.39,3.47.26,7.19,2.13,10.95,1.91,3.85,4.51,6.46,7.52,7.91,3.26,1.57,6.4,1.41,9.27-.42,6.1-3.88,6.24-9.92,1.39-18.61Z"/>
  <path class="cls-3" d="m265.21,264.54c0,5.27-.01,7.91-.05,13.18-1.62.03-2.42.01-4.04-.08.13,4.73.23,7.09.48,11.82-4.76-.61-7.14-1.6-11.89-4.95-3.61-10.17-4.3-15.26-3.43-25.43.42-4.92,3.02-9.28,6.51-13.43,3.49-4.14,7.41-7.43,12.27-7.24,4.69.18,8.34,3.38,11.32,7.1,2.98,3.72,5.36,8,5.84,13.16.96,10.34.28,15.5-3.39,25.84-4.76,3.35-7.14,4.34-11.89,4.95.58-10.33.79-20.76.63-31.1-.02-1.94-.28-3.3-.74-4.06-.46-.77-1.27-1.17-2.42-1.18-2.24,0-3.4,1.8-3.44,5.24-.03,2.47-.04,3.71-.03,6.18,1.71,0,2.57,0,4.28,0Z"/>
  <path class="cls-2" d="m86.66,162.69c-4.82,12.55-10.75,23.96-17.15,35.75-3.34-6.39-5.63-8.34-10.82-10.65,4.83-10.19,9.22-20.09,13.18-30.65-3.97-1.26-5.69-1.68-9.48-3.11,2.1-4.98,3.13-7.58,4.43-14.07,14.03-1.03,26.33.92,40.1,3.89-.27,11.56-1.9,17.15-5.78,26.59-6.32-3.94-9.35-5.39-14.48-7.74Z"/>
  <text class="cls-5" transform="translate(267.91 560.27)"><tspan x="0" y="0">q</tspan></text>
  <text class="cls-1" transform="translate(46.3 532.21)"><tspan x="0" y="0">o</tspan></text>
  <path class="cls-4" d="m75.82,76.29c0,1.01-.2,2.82-.59,5.5-.42,2.91-.8,4.72-1.13,5.28-.27.45-.67.69-1.16.69-.21,0-.56-.04-1.05-.11-1.71-.25-6.7-.42-14.98-.41-1.81,0-4.49-.01-8.06-.02-3.56-.01-6.23,0-8.01.01-.77,0-1.16-.33-1.16-1.01,0-2.62.15-6.56.42-11.93.27-5.36.4-9.43.39-12.09,0-2.71-.16-7.73-.41-14.88-.07-1.84-.18-4.58-.34-8.16-.01-.19-.02-.28-.03-.46-.04-.5.2-1.02.74-1.52,1.48-1.36,3.84-3.21,7.38-4.59,3.54-1.38,6.4-1.66,8.28-1.78,1.85-.12,4.7-.2,8.33.67,3.64.87,6.15,2.32,7.75,3.42,1.14.78,1.74,1.79,1.91,2.87.1.64.25,2.46.46,5.42.21,2.96.31,4.71.31,5.31,0,.5-.21.61-.64.34-.13-.08-.35-.23-.67-.45-5.74-3.91-11.86-5.29-17.15-5.07-1.32.06-2.13.5-2.42,1.2-.12.34-.18,1.38-.17,3.12,0,1.82.27,3,.76,3.55.42.47,1.22.67,2.41.64.25,0,.73-.03,1.44-.06s1.31-.02,1.78.01c3.1.2,6.22.68,9.22,1.49.26.06.91.22,1.9.5.76.22,1.37.43,1.81.64.53.25.79.66.78,1.22,0-.51-.21,1.23-.63,5.32-.19,1.88-.3,3.82-.31,5.78,0,.49-.33.64-.99.47-1.23-.47-1.85-.68-3.11-1.09-1.33-.42-4.4-1.14-9.32-1.29-1.54-.05-2.31-.05-3.85,0-.99.04-1.57.35-1.74.89-.02.14-.03.97-.02,2.5.01,2.04.14,3.35.38,3.92.41,1,1.95,1.53,4.6,1.76-.05,0,1.71-.03,5.22.21,1.26.09,3.13.1,5.57.19,2.44.09,4.22.33,5.39.57.5.1.74.58.74,1.43Z"/>
</svg>